<svg version="1.1" id="Layer_1" xmlns="http://www.w3.org/2000/svg" xmlns:xlink="http://www.w3.org/1999/xlink" x="0px" y="0px"
	 width="100%" viewBox="0 0 709 709" enable-background="new 0 0 709 709" xml:space="preserve">
<path fill="#47704C" opacity="1.000000" stroke="none" 
	d="
M484.000000,710.000000 
	C322.666656,710.000000 161.833328,710.000000 1.000000,710.000000 
	C1.000000,473.666656 1.000000,237.333328 1.000000,1.000000 
	C237.333328,1.000000 473.666656,1.000000 710.000000,1.000000 
	C710.000000,237.333328 710.000000,473.666656 710.000000,710.000000 
	C634.833313,710.000000 559.666687,710.000000 484.000000,710.000000 
M185.835831,601.257446 
	C199.118332,570.402283 211.700562,539.220337 225.900635,508.793427 
	C237.670609,483.573578 250.639755,458.842651 264.362213,434.622894 
	C280.836578,405.546082 298.066589,376.852051 316.109436,348.723511 
	C330.748291,325.901825 346.965607,304.085236 362.699463,281.977051 
	C369.030884,273.080566 375.724060,264.418762 382.632751,255.960678 
	C396.047485,239.537384 409.767426,223.363617 423.248596,206.993973 
	C424.635925,205.309387 425.262512,202.998322 426.242126,200.977982 
	C425.871368,200.534409 425.500580,200.090836 425.129822,199.647263 
	C419.784973,200.412537 414.425354,201.087524 409.097900,201.959000 
	C388.233185,205.372009 367.330719,208.585037 346.535980,212.385086 
	C330.943817,215.234406 315.442627,218.643906 300.004272,222.246658 
	C292.077362,224.096527 283.709106,225.051605 278.011230,232.434845 
	C265.367279,248.818680 251.923691,264.598297 239.598923,281.212433 
	C222.941666,303.666870 207.163376,326.771698 190.688004,349.364136 
	C187.197708,354.150360 186.602249,359.021790 187.175217,364.385254 
	C187.543182,367.829742 188.313171,371.233337 188.947067,374.647064 
	C193.650604,399.976868 198.423950,425.294067 202.997192,450.647339 
	C203.530487,453.603851 203.647949,456.950745 202.826248,459.788910 
	C190.827789,501.231964 178.514725,542.584045 166.561157,584.039917 
	C162.672852,597.524841 159.566681,611.236816 156.178650,624.863770 
	C154.863266,630.154358 155.556793,630.945251 161.018555,630.994812 
	C163.850906,631.020508 166.700714,630.802612 169.512039,631.046875 
	C173.097290,631.358459 174.876587,629.887573 176.077515,626.509460 
	C179.013245,618.251587 182.335510,610.131104 185.835831,601.257446 
M543.491638,237.016281 
	C548.494324,231.270599 553.795532,225.750717 558.380859,219.689301 
	C560.881714,216.383316 563.160339,212.325760 563.832581,208.320679 
	C566.773499,190.801971 567.792603,173.204422 566.213928,155.362335 
	C564.904480,140.563828 562.255371,126.224426 556.927246,112.412674 
	C553.355774,103.154388 548.269958,95.048866 539.151123,89.980476 
	C526.171265,82.766068 511.985870,80.717850 497.561493,80.078247 
	C474.662994,79.062889 452.363617,83.317757 430.467468,89.460159 
	C420.710785,92.197151 410.280640,93.888130 402.460327,101.385925 
	C392.992706,110.463043 383.318695,119.337555 374.122101,128.681747 
	C358.507050,144.547455 343.135590,160.654861 327.788422,176.781235 
	C322.209137,182.643799 316.937683,188.804428 311.665222,194.948685 
	C310.810669,195.944519 310.685333,197.566116 310.222961,198.898483 
	C311.675079,199.273758 313.110443,199.768524 314.586182,199.975098 
	C315.351532,200.082230 316.185425,199.664413 316.993225,199.509094 
	C333.533234,196.328888 350.040039,192.960403 366.624268,190.030182 
	C382.555084,187.215424 398.531128,184.602554 414.553131,182.374649 
	C427.643463,180.554413 440.808441,179.147232 453.983978,178.112900 
	C461.284088,177.539841 464.834625,181.560501 464.993927,189.033173 
	C465.663452,220.441177 466.119415,251.855759 467.091827,283.254333 
	C467.511475,296.804199 468.942322,310.325562 470.078094,323.846069 
	C470.192657,325.209900 471.446594,326.478027 472.171753,327.790588 
	C473.439758,326.876007 475.017334,326.199524 475.930511,325.012054 
	C498.329376,295.884796 520.657654,266.703247 543.491638,237.016281 
M328.860962,366.348267 
	C324.153931,373.750000 319.230499,381.024292 314.781433,388.577972 
	C302.679779,409.124451 290.334534,429.546722 278.919586,450.473053 
	C266.779449,472.728821 255.573624,495.495056 244.063568,518.091248 
	C243.506424,519.184998 243.947891,520.787354 243.924316,522.152832 
	C245.151138,522.170959 246.506516,522.541443 247.583374,522.148499 
	C253.487366,519.994385 259.354065,517.729370 265.177155,515.363525 
	C300.627655,500.960480 336.707733,488.328278 373.510223,477.895111 
	C382.804626,475.260254 388.936371,470.910217 392.900421,461.804413 
	C397.509399,451.217285 403.601776,441.238373 409.482513,431.249969 
	C423.506836,407.429718 437.886047,383.817902 451.824188,359.948090 
	C453.432831,357.193207 453.703979,353.327271 453.632385,349.997131 
	C453.519226,344.731140 452.478668,339.492279 452.030670,334.224884 
	C450.978333,321.851288 449.894531,309.477264 449.098083,297.085724 
	C447.939148,279.053894 446.923401,261.011261 446.052643,242.963318 
	C445.731720,236.312103 446.153076,229.626572 445.894592,222.969940 
	C445.819794,221.044357 444.559387,219.164795 443.842529,217.264130 
	C442.059082,218.212540 439.833374,218.765610 438.569916,220.178879 
	C433.522949,225.824249 428.645264,231.634079 423.940430,237.569733 
	C408.204376,257.422363 392.068787,276.985565 377.030914,297.356995 
	C360.518341,319.726166 345.052856,342.868286 328.860962,366.348267 
M321.129456,532.634583 
	C324.356079,526.193420 327.582733,519.752319 331.419342,512.093445 
	C328.553619,512.394165 326.943878,512.243713 325.580811,512.753174 
	C296.032349,523.797363 266.484833,534.845825 237.035767,546.150452 
	C234.691284,547.050476 232.292206,549.467407 231.237366,551.780823 
	C226.647354,561.847168 222.503647,572.119141 218.324738,582.368164 
	C217.850159,583.532043 218.175110,585.022034 218.129349,586.360779 
	C219.521362,586.201599 221.100220,586.413940 222.275131,585.823059 
	C229.966217,581.955200 237.474060,577.715576 245.220337,573.966431 
	C267.422821,563.220520 289.677917,552.581482 311.993774,542.073425 
	C316.111359,540.134521 319.333313,537.692627 321.129456,532.634583 
z"/>
<path fill="#00C805" opacity="1.000000" stroke="none" 
	d="
M185.669006,601.606384 
	C182.335510,610.131104 179.013245,618.251587 176.077515,626.509460 
	C174.876587,629.887573 173.097290,631.358459 169.512039,631.046875 
	C166.700714,630.802612 163.850906,631.020508 161.018555,630.994812 
	C155.556793,630.945251 154.863266,630.154358 156.178650,624.863770 
	C159.566681,611.236816 162.672852,597.524841 166.561157,584.039917 
	C178.514725,542.584045 190.827789,501.231964 202.826248,459.788910 
	C203.647949,456.950745 203.530487,453.603851 202.997192,450.647339 
	C198.423950,425.294067 193.650604,399.976868 188.947067,374.647064 
	C188.313171,371.233337 187.543182,367.829742 187.175217,364.385254 
	C186.602249,359.021790 187.197708,354.150360 190.688004,349.364136 
	C207.163376,326.771698 222.941666,303.666870 239.598923,281.212433 
	C251.923691,264.598297 265.367279,248.818680 278.011230,232.434845 
	C283.709106,225.051605 292.077362,224.096527 300.004272,222.246658 
	C315.442627,218.643906 330.943817,215.234406 346.535980,212.385086 
	C367.330719,208.585037 388.233185,205.372009 409.097900,201.959000 
	C414.425354,201.087524 419.784973,200.412537 425.129822,199.647263 
	C425.500580,200.090836 425.871368,200.534409 426.242126,200.977982 
	C425.262512,202.998322 424.635925,205.309387 423.248596,206.993973 
	C409.767426,223.363617 396.047485,239.537384 382.632751,255.960678 
	C375.724060,264.418762 369.030884,273.080566 362.699463,281.977051 
	C346.965607,304.085236 330.748291,325.901825 316.109436,348.723511 
	C298.066589,376.852051 280.836578,405.546082 264.362213,434.622894 
	C250.639755,458.842651 237.670609,483.573578 225.900635,508.793427 
	C211.700562,539.220337 199.118332,570.402283 185.669006,601.606384 
z"/>
<path fill="#00C805" opacity="1.000000" stroke="none" 
	d="
M543.245117,237.273865 
	C520.657654,266.703247 498.329376,295.884796 475.930511,325.012054 
	C475.017334,326.199524 473.439758,326.876007 472.171753,327.790588 
	C471.446594,326.478027 470.192657,325.209900 470.078094,323.846069 
	C468.942322,310.325562 467.511475,296.804199 467.091827,283.254333 
	C466.119415,251.855759 465.663452,220.441177 464.993927,189.033173 
	C464.834625,181.560501 461.284088,177.539841 453.983978,178.112900 
	C440.808441,179.147232 427.643463,180.554413 414.553131,182.374649 
	C398.531128,184.602554 382.555084,187.215424 366.624268,190.030182 
	C350.040039,192.960403 333.533234,196.328888 316.993225,199.509094 
	C316.185425,199.664413 315.351532,200.082230 314.586182,199.975098 
	C313.110443,199.768524 311.675079,199.273758 310.222961,198.898483 
	C310.685333,197.566116 310.810669,195.944519 311.665222,194.948685 
	C316.937683,188.804428 322.209137,182.643799 327.788422,176.781235 
	C343.135590,160.654861 358.507050,144.547455 374.122101,128.681747 
	C383.318695,119.337555 392.992706,110.463043 402.460327,101.385925 
	C410.280640,93.888130 420.710785,92.197151 430.467468,89.460159 
	C452.363617,83.317757 474.662994,79.062889 497.561493,80.078247 
	C511.985870,80.717850 526.171265,82.766068 539.151123,89.980476 
	C548.269958,95.048866 553.355774,103.154388 556.927246,112.412674 
	C562.255371,126.224426 564.904480,140.563828 566.213928,155.362335 
	C567.792603,173.204422 566.773499,190.801971 563.832581,208.320679 
	C563.160339,212.325760 560.881714,216.383316 558.380859,219.689301 
	C553.795532,225.750717 548.494324,231.270599 543.245117,237.273865 
z"/>
<path fill="#00C805" opacity="1.000000" stroke="none" 
	d="
M328.996063,366.010956 
	C345.052856,342.868286 360.518341,319.726166 377.030914,297.356995 
	C392.068787,276.985565 408.204376,257.422363 423.940430,237.569733 
	C428.645264,231.634079 433.522949,225.824249 438.569916,220.178879 
	C439.833374,218.765610 442.059082,218.212540 443.842529,217.264130 
	C444.559387,219.164795 445.819794,221.044357 445.894592,222.969940 
	C446.153076,229.626572 445.731720,236.312103 446.052643,242.963318 
	C446.923401,261.011261 447.939148,279.053894 449.098083,297.085724 
	C449.894531,309.477264 450.978333,321.851288 452.030670,334.224884 
	C452.478668,339.492279 453.519226,344.731140 453.632385,349.997131 
	C453.703979,353.327271 453.432831,357.193207 451.824188,359.948090 
	C437.886047,383.817902 423.506836,407.429718 409.482513,431.249969 
	C403.601776,441.238373 397.509399,451.217285 392.900421,461.804413 
	C388.936371,470.910217 382.804626,475.260254 373.510223,477.895111 
	C336.707733,488.328278 300.627655,500.960480 265.177155,515.363525 
	C259.354065,517.729370 253.487366,519.994385 247.583374,522.148499 
	C246.506516,522.541443 245.151138,522.170959 243.924316,522.152832 
	C243.947891,520.787354 243.506424,519.184998 244.063568,518.091248 
	C255.573624,495.495056 266.779449,472.728821 278.919586,450.473053 
	C290.334534,429.546722 302.679779,409.124451 314.781433,388.577972 
	C319.230499,381.024292 324.153931,373.750000 328.996063,366.010956 
z"/>
<path fill="#00C805" opacity="1.000000" stroke="none" 
	d="
M321.004974,532.985596 
	C319.333313,537.692627 316.111359,540.134521 311.993774,542.073425 
	C289.677917,552.581482 267.422821,563.220520 245.220337,573.966431 
	C237.474060,577.715576 229.966217,581.955200 222.275131,585.823059 
	C221.100220,586.413940 219.521362,586.201599 218.129333,586.360779 
	C218.175110,585.022034 217.850159,583.532043 218.324738,582.368164 
	C222.503647,572.119141 226.647354,561.847168 231.237366,551.780823 
	C232.292206,549.467407 234.691284,547.050476 237.035767,546.150452 
	C266.484833,534.845825 296.032349,523.797363 325.580811,512.753174 
	C326.943878,512.243713 328.553619,512.394165 331.419342,512.093445 
	C327.582733,519.752319 324.356079,526.193420 321.004974,532.985596 
z"/>
</svg>